<mxfile host="app.diagrams.net" modified="2024-04-18T18:17:30.780Z" agent="Mozilla/5.0 (Windows NT 10.0; Win64; x64) AppleWebKit/537.36 (KHTML, like Gecko) Chrome/124.0.0.0 Safari/537.36" etag="0w2RUKPtQjjCByULZ02O" version="23.1.2" type="device">
  <diagram name="Page-1" id="EBz-vZ7lAK975_ScsR4C">
    <mxGraphModel dx="1434" dy="780" grid="1" gridSize="10" guides="1" tooltips="1" connect="1" arrows="1" fold="1" page="1" pageScale="1" pageWidth="850" pageHeight="1100" math="0" shadow="0">
      <root>
        <mxCell id="0" />
        <mxCell id="1" parent="0" />
        <mxCell id="6Yqwo4q_Vw-qbeeQSY9d-1" value="A1" style="ellipse;whiteSpace=wrap;html=1;aspect=fixed;" vertex="1" parent="1">
          <mxGeometry x="170" y="260" width="40" height="40" as="geometry" />
        </mxCell>
        <mxCell id="6Yqwo4q_Vw-qbeeQSY9d-2" value="A2" style="ellipse;whiteSpace=wrap;html=1;aspect=fixed;" vertex="1" parent="1">
          <mxGeometry x="240" y="140" width="40" height="40" as="geometry" />
        </mxCell>
        <mxCell id="6Yqwo4q_Vw-qbeeQSY9d-3" value="A5" style="ellipse;whiteSpace=wrap;html=1;aspect=fixed;" vertex="1" parent="1">
          <mxGeometry x="470" y="340" width="40" height="40" as="geometry" />
        </mxCell>
        <mxCell id="6Yqwo4q_Vw-qbeeQSY9d-4" value="A6" style="ellipse;whiteSpace=wrap;html=1;aspect=fixed;" vertex="1" parent="1">
          <mxGeometry x="530" y="130" width="40" height="40" as="geometry" />
        </mxCell>
        <mxCell id="6Yqwo4q_Vw-qbeeQSY9d-5" value="A3" style="ellipse;whiteSpace=wrap;html=1;aspect=fixed;" vertex="1" parent="1">
          <mxGeometry x="320" y="320" width="40" height="40" as="geometry" />
        </mxCell>
        <mxCell id="6Yqwo4q_Vw-qbeeQSY9d-6" value="A4" style="ellipse;whiteSpace=wrap;html=1;aspect=fixed;" vertex="1" parent="1">
          <mxGeometry x="405" y="200" width="40" height="40" as="geometry" />
        </mxCell>
        <mxCell id="6Yqwo4q_Vw-qbeeQSY9d-7" value="" style="endArrow=none;html=1;rounded=0;" edge="1" parent="1" source="6Yqwo4q_Vw-qbeeQSY9d-5" target="6Yqwo4q_Vw-qbeeQSY9d-1">
          <mxGeometry width="50" height="50" relative="1" as="geometry">
            <mxPoint x="400" y="430" as="sourcePoint" />
            <mxPoint x="450" y="380" as="targetPoint" />
          </mxGeometry>
        </mxCell>
        <mxCell id="6Yqwo4q_Vw-qbeeQSY9d-8" value="" style="endArrow=none;html=1;rounded=0;" edge="1" parent="1" source="6Yqwo4q_Vw-qbeeQSY9d-2" target="6Yqwo4q_Vw-qbeeQSY9d-6">
          <mxGeometry width="50" height="50" relative="1" as="geometry">
            <mxPoint x="400" y="430" as="sourcePoint" />
            <mxPoint x="450" y="380" as="targetPoint" />
          </mxGeometry>
        </mxCell>
        <mxCell id="6Yqwo4q_Vw-qbeeQSY9d-9" value="" style="endArrow=none;html=1;rounded=0;" edge="1" parent="1" source="6Yqwo4q_Vw-qbeeQSY9d-5" target="6Yqwo4q_Vw-qbeeQSY9d-6">
          <mxGeometry width="50" height="50" relative="1" as="geometry">
            <mxPoint x="400" y="430" as="sourcePoint" />
            <mxPoint x="450" y="380" as="targetPoint" />
          </mxGeometry>
        </mxCell>
        <mxCell id="6Yqwo4q_Vw-qbeeQSY9d-10" value="" style="endArrow=none;html=1;rounded=0;" edge="1" parent="1" source="6Yqwo4q_Vw-qbeeQSY9d-6" target="6Yqwo4q_Vw-qbeeQSY9d-4">
          <mxGeometry width="50" height="50" relative="1" as="geometry">
            <mxPoint x="400" y="430" as="sourcePoint" />
            <mxPoint x="450" y="380" as="targetPoint" />
          </mxGeometry>
        </mxCell>
        <mxCell id="6Yqwo4q_Vw-qbeeQSY9d-11" value="" style="endArrow=none;html=1;rounded=0;" edge="1" parent="1" source="6Yqwo4q_Vw-qbeeQSY9d-5" target="6Yqwo4q_Vw-qbeeQSY9d-3">
          <mxGeometry width="50" height="50" relative="1" as="geometry">
            <mxPoint x="400" y="430" as="sourcePoint" />
            <mxPoint x="450" y="380" as="targetPoint" />
          </mxGeometry>
        </mxCell>
        <mxCell id="6Yqwo4q_Vw-qbeeQSY9d-12" value="" style="endArrow=none;html=1;rounded=0;" edge="1" parent="1" source="6Yqwo4q_Vw-qbeeQSY9d-5" target="6Yqwo4q_Vw-qbeeQSY9d-2">
          <mxGeometry width="50" height="50" relative="1" as="geometry">
            <mxPoint x="400" y="430" as="sourcePoint" />
            <mxPoint x="450" y="380" as="targetPoint" />
          </mxGeometry>
        </mxCell>
        <mxCell id="6Yqwo4q_Vw-qbeeQSY9d-13" value="A7" style="ellipse;whiteSpace=wrap;html=1;aspect=fixed;" vertex="1" parent="1">
          <mxGeometry x="580" y="240" width="40" height="40" as="geometry" />
        </mxCell>
        <mxCell id="6Yqwo4q_Vw-qbeeQSY9d-14" value="" style="endArrow=none;html=1;rounded=0;" edge="1" parent="1" source="6Yqwo4q_Vw-qbeeQSY9d-3" target="6Yqwo4q_Vw-qbeeQSY9d-13">
          <mxGeometry width="50" height="50" relative="1" as="geometry">
            <mxPoint x="400" y="430" as="sourcePoint" />
            <mxPoint x="450" y="380" as="targetPoint" />
          </mxGeometry>
        </mxCell>
        <mxCell id="6Yqwo4q_Vw-qbeeQSY9d-15" value="" style="shape=image;html=1;verticalAlign=top;verticalLabelPosition=bottom;labelBackgroundColor=#ffffff;imageAspect=0;aspect=fixed;image=https://cdn4.iconfinder.com/data/icons/48-bubbles/48/12.File-128.png" vertex="1" parent="1">
          <mxGeometry x="330" y="160" width="20" height="20" as="geometry" />
        </mxCell>
        <mxCell id="6Yqwo4q_Vw-qbeeQSY9d-16" value="" style="shape=image;html=1;verticalAlign=top;verticalLabelPosition=bottom;labelBackgroundColor=#ffffff;imageAspect=0;aspect=fixed;image=https://cdn4.iconfinder.com/data/icons/48-bubbles/48/12.File-128.png" vertex="1" parent="1">
          <mxGeometry x="220" y="310" width="20" height="20" as="geometry" />
        </mxCell>
        <mxCell id="6Yqwo4q_Vw-qbeeQSY9d-17" value="" style="shape=image;html=1;verticalAlign=top;verticalLabelPosition=bottom;labelBackgroundColor=#ffffff;imageAspect=0;aspect=fixed;image=https://cdn4.iconfinder.com/data/icons/48-bubbles/48/12.File-128.png" vertex="1" parent="1">
          <mxGeometry x="300" y="230" width="20" height="20" as="geometry" />
        </mxCell>
        <mxCell id="6Yqwo4q_Vw-qbeeQSY9d-18" value="" style="shape=image;html=1;verticalAlign=top;verticalLabelPosition=bottom;labelBackgroundColor=#ffffff;imageAspect=0;aspect=fixed;image=https://cdn4.iconfinder.com/data/icons/48-bubbles/48/12.File-128.png" vertex="1" parent="1">
          <mxGeometry x="385" y="280" width="20" height="20" as="geometry" />
        </mxCell>
        <mxCell id="6Yqwo4q_Vw-qbeeQSY9d-19" value="" style="shape=image;html=1;verticalAlign=top;verticalLabelPosition=bottom;labelBackgroundColor=#ffffff;imageAspect=0;aspect=fixed;image=https://cdn4.iconfinder.com/data/icons/48-bubbles/48/12.File-128.png" vertex="1" parent="1">
          <mxGeometry x="390" y="360" width="20" height="20" as="geometry" />
        </mxCell>
        <mxCell id="6Yqwo4q_Vw-qbeeQSY9d-20" value="" style="shape=image;html=1;verticalAlign=top;verticalLabelPosition=bottom;labelBackgroundColor=#ffffff;imageAspect=0;aspect=fixed;image=https://cdn4.iconfinder.com/data/icons/48-bubbles/48/12.File-128.png" vertex="1" parent="1">
          <mxGeometry x="550" y="310" width="20" height="20" as="geometry" />
        </mxCell>
        <mxCell id="6Yqwo4q_Vw-qbeeQSY9d-21" value="" style="shape=image;html=1;verticalAlign=top;verticalLabelPosition=bottom;labelBackgroundColor=#ffffff;imageAspect=0;aspect=fixed;image=https://cdn4.iconfinder.com/data/icons/48-bubbles/48/12.File-128.png" vertex="1" parent="1">
          <mxGeometry x="480" y="190" width="20" height="20" as="geometry" />
        </mxCell>
        <mxCell id="6Yqwo4q_Vw-qbeeQSY9d-23" value="P1" style="text;html=1;align=center;verticalAlign=middle;resizable=0;points=[];autosize=1;strokeColor=none;fillColor=none;" vertex="1" parent="1">
          <mxGeometry x="230" y="305" width="40" height="30" as="geometry" />
        </mxCell>
        <mxCell id="6Yqwo4q_Vw-qbeeQSY9d-24" value="P2" style="text;html=1;align=center;verticalAlign=middle;resizable=0;points=[];autosize=1;strokeColor=none;fillColor=none;" vertex="1" parent="1">
          <mxGeometry x="310" y="225" width="40" height="30" as="geometry" />
        </mxCell>
        <mxCell id="6Yqwo4q_Vw-qbeeQSY9d-25" value="P3" style="text;html=1;align=center;verticalAlign=middle;resizable=0;points=[];autosize=1;strokeColor=none;fillColor=none;" vertex="1" parent="1">
          <mxGeometry x="340" y="155" width="40" height="30" as="geometry" />
        </mxCell>
        <mxCell id="6Yqwo4q_Vw-qbeeQSY9d-26" value="P4" style="text;html=1;align=center;verticalAlign=middle;resizable=0;points=[];autosize=1;strokeColor=none;fillColor=none;" vertex="1" parent="1">
          <mxGeometry x="390" y="275" width="40" height="30" as="geometry" />
        </mxCell>
        <mxCell id="6Yqwo4q_Vw-qbeeQSY9d-27" value="P5" style="text;html=1;align=center;verticalAlign=middle;resizable=0;points=[];autosize=1;strokeColor=none;fillColor=none;" vertex="1" parent="1">
          <mxGeometry x="400" y="355" width="40" height="30" as="geometry" />
        </mxCell>
        <mxCell id="6Yqwo4q_Vw-qbeeQSY9d-28" value="P6" style="text;html=1;align=center;verticalAlign=middle;resizable=0;points=[];autosize=1;strokeColor=none;fillColor=none;" vertex="1" parent="1">
          <mxGeometry x="490" y="185" width="40" height="30" as="geometry" />
        </mxCell>
        <mxCell id="6Yqwo4q_Vw-qbeeQSY9d-29" value="P7" style="text;html=1;align=center;verticalAlign=middle;resizable=0;points=[];autosize=1;strokeColor=none;fillColor=none;" vertex="1" parent="1">
          <mxGeometry x="560" y="305" width="40" height="30" as="geometry" />
        </mxCell>
      </root>
    </mxGraphModel>
  </diagram>
</mxfile>
